<svg xmlns="http://www.w3.org/2000/svg" xmlns:xlink="http://www.w3.org/1999/xlink" width="1392.857" height="1384.866" viewBox="0 0 1392.857 1384.866">
  <defs>
    <filter id="Path_1">
      <feOffset dy="3" input="SourceAlpha"/>
      <feGaussianBlur stdDeviation="25" result="blur"/>
      <feFlood flood-opacity="0.102" result="color"/>
      <feComposite operator="out" in="SourceGraphic" in2="blur"/>
      <feComposite operator="in" in="color"/>
      <feComposite operator="in" in2="SourceGraphic"/>
    </filter>
    <filter id="Path_2">
      <feOffset dy="3" input="SourceAlpha"/>
      <feGaussianBlur stdDeviation="25" result="blur-2"/>
      <feFlood flood-opacity="0.102" result="color-2"/>
      <feComposite operator="out" in="SourceGraphic" in2="blur-2"/>
      <feComposite operator="in" in="color-2"/>
      <feComposite operator="in" in2="SourceGraphic"/>
    </filter>
  </defs>
  <g id="Group_136" data-name="Group 136" transform="translate(-611.572 108.894)" opacity="0.3">
    <g data-type="innerShadowGroup">
      <path id="Path_1-2" data-name="Path 1" d="M1173.3,466.851v635.772c-.229,4.588.229,9.062,0,13.536a23.751,23.751,0,0,0,0,2.867c-9.749,150.025-100.36,257.727-187.989,324.71-132.592,101.28-284.567,97.724-380.685,60.561-29.021-11.928-34.752-17.663-52.3-24.66-6.423-3.67-12.846-7.341-19.038-11.24-15.6-7.914-18.583-13.534-25.807-18.008-11.47-9.176-19.959-16.4-32.69-27.871,0,0-10.667-9.292-16.4-16.174a396.95,396.95,0,0,1-42.783-54.022c121.235-51.844,265.754-206.113,267.246-389.171V323.478c-1.263-39.915-8.6-135.918,80.634-135.918,17.892,0,39.8,3.785,66.294,12.847l199,56.661C1136.019,288.609,1173.3,295.721,1173.3,466.851Z" transform="translate(831.066 -296.454)" fill="#ebeaea"/>
      <g transform="matrix(1, 0, 0, 1, 611.57, -108.89)" filter="url(#Path_1)">
        <path id="Path_1-3" data-name="Path 1" d="M1173.3,466.851v635.772c-.229,4.588.229,9.062,0,13.536a23.751,23.751,0,0,0,0,2.867c-9.749,150.025-100.36,257.727-187.989,324.71-132.592,101.28-284.567,97.724-380.685,60.561-29.021-11.928-34.752-17.663-52.3-24.66-6.423-3.67-12.846-7.341-19.038-11.24-15.6-7.914-18.583-13.534-25.807-18.008-11.47-9.176-19.959-16.4-32.69-27.871,0,0-10.667-9.292-16.4-16.174a396.95,396.95,0,0,1-42.783-54.022c121.235-51.844,265.754-206.113,267.246-389.171V323.478c-1.263-39.915-8.6-135.918,80.634-135.918,17.892,0,39.8,3.785,66.294,12.847l199,56.661C1136.019,288.609,1173.3,295.721,1173.3,466.851Z" transform="translate(219.49 -187.56)" fill="#fff"/>
      </g>
    </g>
    <g data-type="innerShadowGroup">
      <path id="Path_2-2" data-name="Path 2" d="M1143.516,1569.286c-18.925-5.047-325.513-87.514-437-120.891l-4.246-1.262c-.8-.229-1.6-.574-2.408-.8-10.552-3.211-18.466-5.735-22.824-7.224v-.346c-188.335-65.836-321.5-252.8-316.684-473.818V310.817c0-70.883-.114-122.957,66.639-122.957,15.945,0,35.558,2.982,59.874,9.291l232.837,65.721c96.576,36.589,133.28,30.166,130.986,172.277v669.38C846.1,1316.032,967.914,1496.453,1143.516,1569.286Z" transform="translate(251.343 -293.313)" fill="#ebeaea"/>
      <g transform="matrix(1, 0, 0, 1, 611.57, -108.89)" filter="url(#Path_2)">
        <path id="Path_2-3" data-name="Path 2" d="M1143.516,1569.286c-18.925-5.047-325.513-87.514-437-120.891l-4.246-1.262c-.8-.229-1.6-.574-2.408-.8-10.552-3.211-18.466-5.735-22.824-7.224v-.346c-188.335-65.836-321.5-252.8-316.684-473.818V310.817c0-70.883-.114-122.957,66.639-122.957,15.945,0,35.558,2.982,59.874,9.291l232.837,65.721c96.576,36.589,133.28,30.166,130.986,172.277v669.38C846.1,1316.032,967.914,1496.453,1143.516,1569.286Z" transform="translate(-360.23 -184.42)" fill="#fff"/>
      </g>
    </g>
  </g>
</svg>
