<svg id="Group_12" data-name="Group 12" xmlns="http://www.w3.org/2000/svg" xmlns:xlink="http://www.w3.org/1999/xlink" width="18" height="16" viewBox="0 0 18 16">
  <defs>
    <linearGradient id="linear-gradient" x1="0.5" x2="0.5" y2="1" gradientUnits="objectBoundingBox">
      <stop offset="0" stop-color="#ee303c"/>
      <stop offset="1" stop-color="#9e0621"/>
    </linearGradient>
  </defs>
  <path id="Path_27" data-name="Path 27" d="M18.92,6.01A1.494,1.494,0,0,0,17.5,5H6.5A1.5,1.5,0,0,0,5.08,6.01L3,12v8a1,1,0,0,0,1,1H5a1,1,0,0,0,1-1V19H18v1a1,1,0,0,0,1,1h1a1,1,0,0,0,1-1V12ZM6.85,7H17.14l1.04,3H5.81ZM19,17H5V12H19Z" transform="translate(-3 -5)" fill="url(#linear-gradient)"/>
  <circle id="Ellipse_2" data-name="Ellipse 2" cx="1.5" cy="1.5" r="1.5" transform="translate(3 8)" fill="url(#linear-gradient)"/>
  <circle id="Ellipse_3" data-name="Ellipse 3" cx="1.5" cy="1.5" r="1.5" transform="translate(12 8)" fill="url(#linear-gradient)"/>
</svg>
