<svg id="fact_check_black_24dp" xmlns="http://www.w3.org/2000/svg" width="24" height="24" viewBox="0 0 24 24">
  <g id="Group_226" data-name="Group 226">
    <rect id="Rectangle_836" data-name="Rectangle 836" width="24" height="24" fill="none"/>
  </g>
  <g id="Group_228" data-name="Group 228">
    <g id="Group_227" data-name="Group 227">
      <path id="Path_256" data-name="Path 256" d="M20,3H4A2.006,2.006,0,0,0,2,5V19a2.006,2.006,0,0,0,2,2H20a2.006,2.006,0,0,0,2-2V5A2.006,2.006,0,0,0,20,3ZM10,17H5V15h5Zm0-4H5V11h5Zm0-4H5V7h5Zm4.82,6L12,12.16l1.41-1.41,1.41,1.42L17.99,9l1.42,1.42Z" fill="#006a9f" fill-rule="evenodd"/>
    </g>
  </g>
</svg>
