<svg id="public_black_24dp" xmlns="http://www.w3.org/2000/svg" width="48" height="48" viewBox="0 0 48 48">
  <path id="Path_246" data-name="Path 246" d="M0,0H48V48H0Z" fill="none"/>
  <path id="Path_247" data-name="Path 247" d="M22,2A20,20,0,1,0,42,22,20.007,20.007,0,0,0,22,2ZM20,37.86A15.977,15.977,0,0,1,6,22a16.236,16.236,0,0,1,.42-3.58L16,28v2a4.012,4.012,0,0,0,4,4Zm13.8-5.08A3.968,3.968,0,0,0,30,30H28V24a2.006,2.006,0,0,0-2-2H14V18h4a2.006,2.006,0,0,0,2-2V12h4a4.012,4.012,0,0,0,4-4V7.18a15.964,15.964,0,0,1,5.8,25.6Z" transform="translate(2 2)" fill="#fff"/>
</svg>
