<svg xmlns="http://www.w3.org/2000/svg" width="2035" height="778.194" viewBox="0 0 2035 778.194">
  <g id="Group_237" data-name="Group 237" transform="translate(0 -1404)">
    <path id="Subtraction_9" data-name="Subtraction 9" d="M-5964,211h-422a212.566,212.566,0,0,1,4.287-42.524,209.958,209.958,0,0,1,12.295-39.607,211.05,211.05,0,0,1,19.454-35.841A212.53,212.53,0,0,1-6324.2,61.8a212.493,212.493,0,0,1,31.228-25.765,211.02,211.02,0,0,1,35.841-19.454,209.931,209.931,0,0,1,39.607-12.295A212.563,212.563,0,0,1-6175,0a212.551,212.551,0,0,1,42.523,4.287,209.943,209.943,0,0,1,39.607,12.295,211.012,211.012,0,0,1,35.841,19.454A212.493,212.493,0,0,1-6025.8,61.8a212.485,212.485,0,0,1,25.765,31.227,211.05,211.05,0,0,1,19.454,35.841,209.958,209.958,0,0,1,12.295,39.607A212.591,212.591,0,0,1-5964,211Z" transform="translate(6904.083 1719.54)" fill="#fff"/>
    <path id="Path_259" data-name="Path 259" d="M518.583,509.331c0,3.145,0,6.106-.185,9.251H348.911c.185-2.96.185-6.106.185-9.251C349.1,321.9,197.186,169.987,9.751,169.987c-3.146,0-6.291,0-9.251.185V.685C3.646.5,6.606.5,9.751.5c281.06,0,508.831,227.771,508.831,508.831" transform="translate(-0.5 1411.959)" fill="#f2f2f2"/>
    <path id="Subtraction_8" data-name="Subtraction 8" d="M-6041.461,456.194a338.1,338.1,0,0,0-14.712-58.943,338.477,338.477,0,0,0-24.5-54.37,340.956,340.956,0,0,0-33.283-48.775,342.286,342.286,0,0,0-41.053-42.17,341.324,341.324,0,0,0-47.815-34.557,338.844,338.844,0,0,0-53.567-25.933,337.844,337.844,0,0,0-58.31-16.3,342.433,342.433,0,0,0-62.044-5.658c-3.093,0-6.292,0-9.252.184V.184c3.146-.184,6.112-.184,9.252-.184,15.874,0,31.892.739,47.61,2.2,15.507,1.439,31.109,3.613,46.373,6.462,15.079,2.815,30.2,6.359,44.94,10.532,14.585,4.129,29.157,8.976,43.312,14.406,14.026,5.381,27.985,11.465,41.488,18.085,13.4,6.571,26.683,13.827,39.469,21.568,12.714,7.7,25.249,16.06,37.254,24.856,11.962,8.763,23.685,18.166,34.844,27.948V456.193Z" transform="translate(7961.959 1726)" fill="#f2f2f2"/>
    <path id="Path_260" data-name="Path 260" d="M518.583,509.331c0,3.145,0,6.106-.185,9.251H348.911c.185-2.96.185-6.106.185-9.251C349.1,321.9,197.186,169.987,9.751,169.987c-3.146,0-6.291,0-9.251.185V.685C3.646.5,6.606.5,9.751.5c281.06,0,508.831,227.771,508.831,508.831" transform="translate(1758.541 1403.5) rotate(90)" fill="#fff"/>
    <circle id="Ellipse_38" data-name="Ellipse 38" cx="114" cy="114" r="114" transform="translate(1807 1498)" fill="#fff"/>
  </g>
</svg>
