<svg id="auto_awesome_black_24dp" xmlns="http://www.w3.org/2000/svg" width="48" height="48" viewBox="0 0 48 48">
  <g id="Group_395" data-name="Group 395">
    <rect id="Rectangle_926" data-name="Rectangle 926" width="48" height="48" fill="none"/>
  </g>
  <g id="Group_397" data-name="Group 397" transform="translate(2 2)">
    <g id="Group_396" data-name="Group 396">
      <path id="Path_322" data-name="Path 322" d="M23,17l2.5-5.5L31,9,25.5,6.5,23,1,20.5,6.5,15,9l5.5,2.5Z" transform="translate(13 -1)" fill="#006a9f"/>
      <path id="Path_323" data-name="Path 323" d="M23,15l-2.5,5.5L15,23l5.5,2.5L23,31l2.5-5.5L31,23l-5.5-2.5Z" transform="translate(13 13)" fill="#006a9f"/>
      <path id="Path_324" data-name="Path 324" d="M22,15,17,4,12,15,1,20l11,5,5,11,5-11,11-5Zm-3.02,6.98L17,26.34l-1.98-4.36L10.66,20l4.36-1.98L17,13.66l1.98,4.36L23.34,20Z" transform="translate(-1 2)" fill="#006a9f"/>
    </g>
  </g>
</svg>
