<svg xmlns="http://www.w3.org/2000/svg" width="26" height="36" viewBox="0 0 26 36">
  <path id="currency_bitcoin_FILL0_wght400_GRAD0_opsz48" d="M18.5,42V37.5H12v-3h4.5v-21H12v-3h6.5V6h3v4.5H27V6h3v4.65a7.17,7.17,0,0,1,4.35,2.65,7.431,7.431,0,0,1,1.1,7.475,7.7,7.7,0,0,1-1.6,2.475A7.574,7.574,0,0,1,38,30a7.469,7.469,0,0,1-7.5,7.5H30V42H27V37.5H21.5V42Zm1-19.5h9a4.307,4.307,0,0,0,3.2-1.325,4.558,4.558,0,0,0,0-6.375,4.349,4.349,0,0,0-3.2-1.3h-9Zm0,12h11a4.307,4.307,0,0,0,3.2-1.325A4.488,4.488,0,0,0,30.5,25.5h-11Z" transform="translate(-12 -6)" fill="#d0d0d0"/>
</svg>
