<svg id="people_outline_black_24dp" xmlns="http://www.w3.org/2000/svg" width="48" height="48" viewBox="0 0 48 48">
  <path id="Path_326" data-name="Path 326" d="M0,0H48V48H0Z" fill="none"/>
  <path id="Path_327" data-name="Path 327" d="M16,22.5c-4.68,0-14,2.34-14,7V33H30V29.5C30,24.84,20.68,22.5,16,22.5ZM6.68,29A19.283,19.283,0,0,1,16,26.5,19.283,19.283,0,0,1,25.32,29ZM16,19a7,7,0,1,0-7-7A7.008,7.008,0,0,0,16,19ZM16,9a3,3,0,1,1-3,3A3,3,0,0,1,16,9ZM30.08,22.62C32.4,24.3,34,26.54,34,29.5V33h8V29.5C42,25.46,35,23.16,30.08,22.62ZM28,19A7,7,0,1,0,28,5a6.891,6.891,0,0,0-3,.7,10.922,10.922,0,0,1,0,12.6A6.891,6.891,0,0,0,28,19Z" transform="translate(2 5)" fill="#006a9f"/>
</svg>
