<svg xmlns="http://www.w3.org/2000/svg" width="20" height="20" viewBox="0 0 20 20">
  <g id="Group_523" data-name="Group 523" transform="translate(-604 -501)">
    <path id="Path_1088" data-name="Path 1088" d="M10,0A10,10,0,1,1,0,10,10,10,0,0,1,10,0Z" transform="translate(604 501)" fill="#006a9f"/>
    <path id="Path_1087" data-name="Path 1087" d="M3.892-10.234a3.661,3.661,0,0,1,1.2.189,2.617,2.617,0,0,1,.938.553,2.434,2.434,0,0,1,.6.882,3.108,3.108,0,0,1,.21,1.176,2.669,2.669,0,0,1-.294,1.26A4.764,4.764,0,0,1,5.544-4.956q-.252.224-.462.448a2.771,2.771,0,0,0-.357.469,2.071,2.071,0,0,0-.224.532,2.517,2.517,0,0,0-.077.651v.42H3.234v-.6a3,3,0,0,1,.063-.63,2.242,2.242,0,0,1,.21-.574,3.283,3.283,0,0,1,.378-.56,6.178,6.178,0,0,1,.581-.6,5.707,5.707,0,0,0,.791-.875,1.825,1.825,0,0,0,.329-1.1,1.9,1.9,0,0,0-.441-1.309,1.587,1.587,0,0,0-1.253-.5,1.749,1.749,0,0,0-1.428.609,2.6,2.6,0,0,0-.5,1.7H.756v-.154A3.59,3.59,0,0,1,.98-8.316a2.953,2.953,0,0,1,.637-1.015A2.885,2.885,0,0,1,2.611-10,3.348,3.348,0,0,1,3.892-10.234ZM4.592,0H3.038V-1.554H4.592Z" transform="translate(610 516)" fill="#fff" stroke="rgba(0,0,0,0)" stroke-width="1"/>
  </g>
</svg>
