<svg id="hotel_class_black_24dp" xmlns="http://www.w3.org/2000/svg" width="48" height="48" viewBox="0 0 48 48">
  <rect id="Rectangle_925" data-name="Rectangle 925" width="48" height="48" fill="none"/>
  <path id="Path_321" data-name="Path 321" d="M21,15.78,22.88,22h5.64l-4.54,3.24,1.86,6.02L21,27.58l-4.84,3.68,1.86-6.02L13.48,22h5.64ZM16.16,18H1l12.34,8.82L8.66,42,21,32.62,33.36,42l-4.7-15.18L41,18H25.84L21,2ZM41.72,42,38,29.98,46.36,24H39.48l-6.16,4.4,2.92,9.44ZM33,14,29.36,2,27.28,8.9,28.82,14Z" transform="translate(1 2)" fill="#006a9f"/>
</svg>
