<svg id="touch_app_black_24dp" xmlns="http://www.w3.org/2000/svg" width="48" height="48" viewBox="0 0 48 48">
  <g id="Group_402" data-name="Group 402">
    <rect id="Rectangle_928" data-name="Rectangle 928" width="48" height="48" fill="none"/>
  </g>
  <g id="Group_404" data-name="Group 404" transform="translate(8 2)">
    <g id="Group_403" data-name="Group 403">
      <path id="Path_328" data-name="Path 328" d="M32.38,23.88,25.9,20.64A10.9,10.9,0,0,0,30.14,12a11,11,0,1,0-16,9.78V28.3c-4.3-.92-4.04-.88-4.52-.88A3.966,3.966,0,0,0,6.8,28.6L4,31.44,14.18,41.62A4.629,4.629,0,0,0,17.48,43h12.6a3.977,3.977,0,0,0,3.94-3.34l1.6-9.42A5.985,5.985,0,0,0,32.38,23.88Zm-.7,5.7L30.08,39H17.48a.738.738,0,0,1-.48-.2L9.64,31.44l8.5,1.78V12a1,1,0,1,1,2,0V24h3.52l6.92,3.46A2.014,2.014,0,0,1,31.68,29.58ZM12.14,12a7,7,0,1,1,14,0,6.929,6.929,0,0,1-2,4.88V12a5,5,0,1,0-10,0v4.88A6.929,6.929,0,0,1,12.14,12Z" transform="translate(-4 -1)" fill="#006a9f"/>
    </g>
  </g>
</svg>
