<svg xmlns="http://www.w3.org/2000/svg" width="62.078" height="62" viewBox="0 0 62.078 62">
  <path id="task_alt_FILL0_wght400_GRAD0_opsz48" d="M35,66a31.442,31.442,0,0,1-12.245-2.364A30,30,0,0,1,6.364,47.245,31.442,31.442,0,0,1,4,35,31.241,31.241,0,0,1,6.364,22.832a30.255,30.255,0,0,1,6.549-9.842A30.906,30.906,0,0,1,35,4,31.081,31.081,0,0,1,45.85,5.86a31.9,31.9,0,0,1,9.067,5.115l-3.332,3.333a25.934,25.934,0,0,0-7.6-4.185A26.9,26.9,0,0,0,35,8.65,25.818,25.818,0,0,0,8.65,35,25.818,25.818,0,0,0,35,61.35,25.818,25.818,0,0,0,61.35,35,29.031,29.031,0,0,0,61,30.466a26.791,26.791,0,0,0-1.046-4.3L63.52,22.6a29.632,29.632,0,0,1,1.86,5.968A32.728,32.728,0,0,1,66,35a30.906,30.906,0,0,1-8.99,22.088,30.255,30.255,0,0,1-9.842,6.549A31.241,31.241,0,0,1,35,66ZM30.427,49.1,17.64,36.24l3.487-3.487,9.3,9.3L62.513,9.967l3.565,3.488Z" transform="translate(-4 -4)" fill="#707070"/>
</svg>
